<svg version="1.1" id="Layer_1" xmlns="http://www.w3.org/2000/svg" xmlns:xlink="http://www.w3.org/1999/xlink" x="0px" y="0px"
	 width="100%" viewBox="0 0 851 851" enable-background="new 0 0 851 851" xml:space="preserve">
<path fill="#F9A61D" opacity="1.000000" stroke="none" 
	d="
M472.000000,852.000000 
	C314.666718,852.000000 157.833420,852.000000 1.000105,852.000000 
	C1.000070,568.333435 1.000070,284.666931 1.000035,1.000295 
	C284.666443,1.000197 568.332886,1.000197 851.999512,1.000098 
	C851.999634,284.666351 851.999634,568.332703 851.999817,851.999512 
	C725.500000,852.000000 599.000000,852.000000 472.000000,852.000000 
M86.993187,435.500031 
	C87.341286,444.485809 87.482811,453.485229 88.074692,462.454926 
	C90.185242,494.439423 97.260330,525.428589 108.558357,555.320007 
	C128.598312,608.340088 160.157211,653.533875 202.654114,691.113281 
	C236.412369,720.965271 274.633484,743.079773 317.164612,757.801331 
	C370.441925,776.242493 425.045654,781.090759 480.710144,772.706665 
	C531.033020,765.127075 577.520508,747.096680 619.797668,718.768860 
	C653.147705,696.422791 681.780151,668.967529 705.551514,636.534302 
	C734.853638,596.554932 754.441284,552.205627 764.406128,503.727112 
	C771.632996,468.568695 773.001892,433.045410 769.026001,397.322540 
	C764.289917,354.768921 751.916931,314.547485 731.838745,276.800964 
	C703.560486,223.638550 663.975464,180.783783 613.195557,148.313431 
	C564.034607,116.878273 510.226196,99.251823 452.142975,95.405235 
	C395.498444,91.653923 340.958801,101.170120 289.029297,124.494743 
	C243.531891,144.930328 204.331589,173.919724 171.435822,211.422256 
	C150.557236,235.224701 133.000900,261.280579 119.553970,289.932251 
	C98.083389,335.680115 86.998360,383.867706 86.993187,435.500031 
z"/>
<path fill="#FEFDF9" opacity="1.000000" stroke="none" 
	d="
M86.992340,435.000092 
	C86.998360,383.867706 98.083389,335.680115 119.553970,289.932251 
	C133.000900,261.280579 150.557236,235.224701 171.435822,211.422256 
	C204.331589,173.919724 243.531891,144.930328 289.029297,124.494743 
	C340.958801,101.170120 395.498444,91.653923 452.142975,95.405235 
	C510.226196,99.251823 564.034607,116.878273 613.195557,148.313431 
	C663.975464,180.783783 703.560486,223.638550 731.838745,276.800964 
	C751.916931,314.547485 764.289917,354.768921 769.026001,397.322540 
	C773.001892,433.045410 771.632996,468.568695 764.406128,503.727112 
	C754.441284,552.205627 734.853638,596.554932 705.551514,636.534302 
	C681.780151,668.967529 653.147705,696.422791 619.797668,718.768860 
	C577.520508,747.096680 531.033020,765.127075 480.710144,772.706665 
	C425.045654,781.090759 370.441925,776.242493 317.164612,757.801331 
	C274.633484,743.079773 236.412369,720.965271 202.654114,691.113281 
	C160.157211,653.533875 128.598312,608.340088 108.558357,555.320007 
	C97.260330,525.428589 90.185242,494.439423 88.074692,462.454926 
	C87.482811,453.485229 87.341286,444.485809 86.992340,435.000092 
M256.102112,680.381653 
	C270.723267,689.006958 284.793549,698.790833 300.063568,706.051514 
	C357.746429,733.478760 418.465973,741.495361 481.316315,730.603638 
	C543.562317,719.816650 596.950378,691.232971 641.932312,647.039307 
	C666.771790,622.635193 686.248230,594.275085 701.129456,562.856812 
	C727.038757,508.155304 735.116821,450.660339 726.273193,390.922119 
	C717.837219,333.937286 694.331909,283.637543 656.607056,240.155365 
	C620.899841,198.998672 577.220337,169.525757 525.503723,152.003204 
	C481.189728,136.988815 435.979767,132.792480 389.562927,138.744232 
	C348.762756,143.975784 310.809448,157.200546 275.635437,178.106781 
	C227.438492,206.753418 189.889526,245.912216 163.499146,295.485626 
	C144.807114,330.597961 133.577454,367.949829 129.845535,407.664124 
	C126.551025,442.723450 129.198395,477.237244 138.147507,511.169067 
	C148.061935,548.761047 164.670898,583.262024 188.076157,614.426025 
	C207.138687,639.807739 229.588257,661.667908 256.102112,680.381653 
z"/>
<path fill="#F4A92C" opacity="1.000000" stroke="none" 
	d="
M255.804291,680.180298 
	C229.588257,661.667908 207.138687,639.807739 188.076157,614.426025 
	C164.670898,583.262024 148.061935,548.761047 138.147507,511.169067 
	C129.198395,477.237244 126.551025,442.723450 129.845535,407.664124 
	C133.577454,367.949829 144.807114,330.597961 163.499146,295.485626 
	C189.889526,245.912216 227.438492,206.753418 275.635437,178.106781 
	C310.809448,157.200546 348.762756,143.975784 389.562927,138.744232 
	C435.979767,132.792480 481.189728,136.988815 525.503723,152.003204 
	C577.220337,169.525757 620.899841,198.998672 656.607056,240.155365 
	C694.331909,283.637543 717.837219,333.937286 726.273193,390.922119 
	C735.116821,450.660339 727.038757,508.155304 701.129456,562.856812 
	C686.248230,594.275085 666.771790,622.635193 641.932312,647.039307 
	C596.950378,691.232971 543.562317,719.816650 481.316315,730.603638 
	C418.465973,741.495361 357.746429,733.478760 300.063568,706.051514 
	C284.793549,698.790833 270.723267,689.006958 255.804291,680.180298 
M337.236328,164.592850 
	C301.332764,176.854279 269.092224,195.444397 240.473892,220.370224 
	C209.622543,247.240875 185.441284,279.176392 168.337845,316.288300 
	C148.898102,358.469696 140.272812,402.845367 142.538391,449.337860 
	C143.680038,472.765411 147.421143,495.708313 154.332886,518.083862 
	C171.037888,572.163208 201.012161,617.483765 244.261414,654.096619 
	C267.621185,673.871948 293.496857,689.398254 321.774811,700.854126 
	C365.522919,718.577332 411.031219,724.669189 457.947723,720.078796 
	C497.075958,716.250305 533.908447,704.834595 568.236206,685.609192 
	C614.474854,659.713257 651.189331,623.992126 677.693237,578.071594 
	C706.089355,528.872864 718.652954,475.833771 715.426941,419.031036 
	C713.798706,390.362122 708.181152,362.548431 697.963562,335.777557 
	C675.591125,277.160065 638.055725,230.533829 585.596436,196.124680 
	C541.527222,167.218781 492.947693,152.018250 440.330811,149.837936 
	C405.352020,148.388489 371.224152,153.309998 337.236328,164.592850 
z"/>
<path fill="#FEFEFD" opacity="1.000000" stroke="none" 
	d="
M337.610291,164.459000 
	C371.224152,153.309998 405.352020,148.388489 440.330811,149.837936 
	C492.947693,152.018250 541.527222,167.218781 585.596436,196.124680 
	C638.055725,230.533829 675.591125,277.160065 697.963562,335.777557 
	C708.181152,362.548431 713.798706,390.362122 715.426941,419.031036 
	C718.652954,475.833771 706.089355,528.872864 677.693237,578.071594 
	C651.189331,623.992126 614.474854,659.713257 568.236206,685.609192 
	C533.908447,704.834595 497.075958,716.250305 457.947723,720.078796 
	C411.031219,724.669189 365.522919,718.577332 321.774811,700.854126 
	C293.496857,689.398254 267.621185,673.871948 244.261414,654.096619 
	C201.012161,617.483765 171.037888,572.163208 154.332886,518.083862 
	C147.421143,495.708313 143.680038,472.765411 142.538391,449.337860 
	C140.272812,402.845367 148.898102,358.469696 168.337845,316.288300 
	C185.441284,279.176392 209.622543,247.240875 240.473892,220.370224 
	C269.092224,195.444397 301.332764,176.854279 337.610291,164.459000 
M498.490234,291.077271 
	C447.742859,291.077271 396.995483,291.077271 346.310303,291.077271 
	C346.310303,316.553040 346.310303,341.279541 346.310303,365.916351 
	C401.757111,365.916351 456.819824,365.916351 511.797943,365.916351 
	C511.797943,340.828918 511.797943,316.115234 511.797943,291.077271 
	C507.438629,291.077271 503.462402,291.077271 498.490234,291.077271 
M455.791992,451.752167 
	C474.538330,451.752167 493.284668,451.752167 511.913757,451.752167 
	C511.913757,426.736084 511.913757,402.142151 511.913757,377.332092 
	C456.578491,377.332092 401.522980,377.332092 346.234711,377.332092 
	C346.234711,402.282990 346.234711,426.981689 346.234711,452.084717 
	C353.497650,452.084717 360.462830,452.108185 367.427795,452.080627 
	C396.571014,451.965302 425.714142,451.834686 455.791992,451.752167 
M582.969971,589.459045 
	C582.969971,563.223389 582.969971,536.987732 582.969971,510.414246 
	C578.276306,510.414246 572.406372,510.414246 567.079224,510.414246 
	C567.079224,530.397888 567.079224,550.099854 567.079224,570.854004 
	C565.842163,568.356140 565.015869,566.750183 564.243469,565.118652 
	C556.193970,548.115723 548.174011,531.098572 540.072021,514.120667 
	C539.391479,512.694580 538.254150,510.488708 537.196594,510.409332 
	C532.037048,510.021881 526.832520,510.233978 522.195679,510.233978 
	C522.545227,517.231689 523.080933,523.323730 523.112061,529.418396 
	C523.220886,550.735840 523.203674,572.054443 523.106079,593.372009 
	C523.091003,596.665466 522.759094,600.049377 521.923035,603.219910 
	C521.166382,606.089294 522.062317,606.923889 524.644775,606.928040 
	C528.641846,606.934509 532.638916,606.925171 536.635986,606.934692 
	C539.193298,606.940796 540.179016,606.136047 539.461670,603.262451 
	C538.666260,600.076355 538.276123,596.714294 538.248535,593.424316 
	C538.130981,579.435608 538.213196,565.445251 538.222229,551.455505 
	C538.223267,549.897095 538.222412,548.338684 538.222412,546.780273 
	C539.986389,547.977783 540.777832,549.355225 541.451172,550.788147 
	C549.592834,568.114563 557.661072,585.476013 565.933960,602.739380 
	C566.746277,604.434570 568.637939,606.467285 570.287903,606.733093 
	C574.022278,607.334534 577.936218,607.126831 581.736511,606.789978 
	C582.640686,606.709778 584.106201,604.809143 584.078552,603.779053 
	C583.959045,599.326355 583.381165,594.885925 582.969971,589.459045 
M266.961090,544.500000 
	C267.143158,533.260620 267.325226,522.021240 267.510345,510.593231 
	C262.386444,510.593231 256.441040,510.593231 251.133881,510.593231 
	C251.133881,524.289185 251.133881,537.450684 251.133881,550.631042 
	C242.288666,550.631042 233.527298,550.631042 224.996490,550.631042 
	C224.996490,537.161682 224.996490,523.979736 224.996490,510.438049 
	C219.580139,510.438049 213.727768,510.438049 208.443710,510.438049 
	C209.559906,542.460754 209.619156,574.112366 208.362732,606.942871 
	C212.380295,606.942871 217.097900,606.843201 221.808884,606.976746 
	C225.141663,607.071106 225.476227,606.152954 225.312439,602.627319 
	C224.753143,590.588745 225.098221,578.508118 225.098221,566.463867 
	C233.788834,566.463867 242.680847,566.463867 251.921448,566.463867 
	C251.921448,576.304932 251.504868,585.805847 252.120865,595.239319 
	C252.377075,599.163025 247.939133,604.085815 252.128326,606.427124 
	C255.447586,608.282227 260.579803,606.851685 264.904846,606.963257 
	C267.922882,607.041138 269.146637,606.226257 268.179291,602.829163 
	C267.328796,599.842590 267.045593,596.612061 267.023712,593.485718 
	C266.911652,577.491150 266.965332,561.495361 266.961090,544.500000 
M632.802185,602.858032 
	C633.269409,604.207825 633.674438,606.701172 634.213562,606.730530 
	C639.580933,607.022339 644.970398,606.907471 650.913147,606.907471 
	C650.367981,604.801575 650.124451,603.697571 649.796692,602.619141 
	C645.246399,587.646973 641.422485,572.398499 635.884033,557.800659 
	C631.721069,546.828003 631.775452,537.680420 639.613586,528.533386 
	C643.249573,524.290161 645.661377,518.991699 648.571472,514.137573 
	C649.207947,513.075867 649.602966,511.869446 650.231201,510.454956 
	C643.176270,510.454956 636.653381,510.454956 631.624023,510.454956 
	C627.285278,526.318298 616.674622,537.608215 608.997070,550.377136 
	C608.997070,537.219177 608.997070,524.061218 608.997070,510.590607 
	C603.557434,510.590607 597.632996,510.590607 592.830017,510.590607 
	C593.215759,542.745911 593.686218,574.384216 592.457520,606.319214 
	C597.814209,606.319214 603.716492,606.319214 610.236206,606.319214 
	C604.518005,587.892883 609.285950,572.690002 621.917175,559.128052 
	C625.807312,571.846252 629.665283,584.233215 633.319397,596.680115 
	C633.796936,598.306824 633.227600,600.240967 632.802185,602.858032 
M387.401886,539.492554 
	C387.401886,534.858398 387.401886,530.224243 387.401886,525.964722 
	C399.988647,525.964722 412.127716,525.964722 425.029999,525.964722 
	C424.113983,520.917725 423.154877,515.633240 422.221252,510.489075 
	C404.780365,510.489075 387.909149,510.489075 371.463013,510.489075 
	C371.463013,542.573547 371.463013,574.230652 371.463013,606.307007 
	C371.512939,606.330261 372.088379,606.830994 372.665771,606.833252 
	C388.319641,606.894714 403.973938,606.942932 419.627167,606.840942 
	C420.689209,606.834045 422.502502,605.791321 422.676117,604.960632 
	C423.677704,600.169128 424.290833,595.296448 424.957153,590.961426 
	C412.065582,590.961426 399.932739,590.961426 387.702209,590.961426 
	C387.702209,582.936462 387.702209,574.698669 387.702209,565.543762 
	C395.070679,566.247681 402.041046,566.913513 409.589630,567.634583 
	C409.224335,568.058655 409.581421,567.835449 409.631104,567.557373 
	C410.215729,564.285706 410.785248,561.010681 411.298676,557.727112 
	C412.364349,550.911987 412.349487,550.909424 405.243561,550.908936 
	C399.454132,550.908508 393.664673,550.908813 387.401855,550.908813 
	C387.401855,547.084839 387.401855,543.787415 387.401886,539.492554 
M347.774048,520.887268 
	C343.327881,538.507385 338.881714,556.127502 334.435547,573.747620 
	C333.911407,573.634888 333.387268,573.522217 332.863129,573.409485 
	C330.212128,562.926331 327.216919,552.515015 325.007874,541.939575 
	C322.839081,531.556824 317.401276,521.676392 320.160797,510.491119 
	C313.865082,510.491119 307.997009,510.491119 301.567383,510.491119 
	C301.977356,512.593689 302.212769,514.199463 302.607330,515.765076 
	C309.364166,542.577820 316.127533,569.388977 322.919403,596.192810 
	C325.667236,607.036987 325.702637,606.857483 336.703400,607.036316 
	C340.606140,607.099670 342.211975,605.796753 343.142365,602.025513 
	C350.244019,573.239014 357.562469,544.506042 364.772247,515.746094 
	C365.189056,514.083313 365.247009,512.330566 365.496338,510.434143 
	C359.103668,510.434143 353.386108,510.434143 347.968079,510.434143 
	C347.968079,513.890625 347.968079,516.969727 347.774048,520.887268 
M388.500366,264.267487 
	C382.502960,264.265106 376.504517,264.202911 370.508850,264.304321 
	C369.086273,264.328339 367.182892,264.426788 366.337494,265.300659 
	C361.912506,269.874420 357.756897,274.708801 352.967194,280.055908 
	C404.110931,280.055908 454.184692,280.055908 505.124115,280.055908 
	C501.118896,275.553680 497.470917,271.731842 494.164124,267.634583 
	C492.078278,265.050171 489.754700,264.181396 486.458221,264.193268 
	C454.139221,264.309875 421.819672,264.265839 388.500366,264.267487 
M449.434387,520.650940 
	C449.936920,517.296631 450.439423,513.942322 450.940826,510.595520 
	C444.648193,510.595520 438.820221,510.595520 433.935699,510.595520 
	C434.694275,542.789673 434.497437,574.452454 434.097504,606.616394 
	C433.736481,606.498169 434.344147,606.869629 434.952850,606.871338 
	C450.118561,606.913757 465.284790,606.963074 480.449585,606.842102 
	C481.695282,606.832092 483.751282,605.861572 484.033417,604.919128 
	C485.432404,600.245361 486.362152,595.431091 487.380035,591.002441 
	C474.350830,591.002441 462.170319,591.002441 449.422089,591.002441 
	C449.422089,568.180176 449.422089,544.897827 449.434387,520.650940 
M511.713623,581.499512 
	C511.713623,557.831116 511.713623,534.162720 511.713623,510.473511 
	C506.776245,510.473511 500.920929,510.473511 495.739838,510.473511 
	C495.949402,519.121643 496.286652,527.351318 496.320801,535.582275 
	C496.402222,555.206665 496.383392,574.831787 496.290497,594.456116 
	C496.276550,597.406250 495.495728,600.347351 495.375275,603.305054 
	C495.327667,604.474670 496.070862,606.692200 496.528534,606.711975 
	C502.035187,606.950745 507.555817,606.866455 511.713562,606.866455 
	C511.713562,597.976074 511.713562,590.237610 511.713623,581.499512 
M278.907593,539.500122 
	C278.907593,555.984863 279.010620,572.470581 278.844879,588.953674 
	C278.795135,593.897278 277.876312,598.827637 277.639221,603.777649 
	C277.590942,604.785461 278.774017,606.723694 279.460663,606.756836 
	C284.694061,607.009155 289.945129,606.895081 294.723572,606.895081 
	C294.723572,574.286377 294.723572,542.493591 294.723572,510.428131 
	C289.249603,510.428131 283.396240,510.428131 277.625580,510.428131 
	C278.075073,515.366333 278.656311,519.932373 278.861603,524.515259 
	C279.070068,529.168274 278.907593,533.837891 278.907593,539.500122 
M496.163208,477.189697 
	C496.917297,477.824036 497.650879,478.976410 498.428864,479.007172 
	C502.880035,479.183289 507.341736,479.092743 511.999695,479.092743 
	C511.999695,473.645111 511.999695,468.570984 511.999695,463.196838 
	C506.756042,463.196838 501.722076,463.196838 496.146759,463.196838 
	C496.146759,467.706970 496.146759,471.975525 496.163208,477.189697 
M354.465607,462.898956 
	C351.724792,462.898956 348.983948,462.898956 346.231384,462.898956 
	C346.231384,468.663818 346.231384,473.690521 346.231384,478.762543 
	C351.596588,478.762543 356.624207,478.762543 361.628845,478.762543 
	C361.628845,473.379761 361.628845,468.346466 361.628845,462.898834 
	C359.338806,462.898834 357.385925,462.898834 354.465607,462.898956 
M308.512787,362.091003 
	C308.436707,367.230499 311.610596,370.458374 315.321411,368.618561 
	C316.935913,367.818085 318.837402,365.486847 318.763397,363.939026 
	C318.676331,362.116821 316.761017,359.123016 315.325470,358.926758 
	C313.299225,358.649750 310.985870,360.472900 308.512787,362.091003 
M548.549011,402.048920 
	C548.453064,399.639069 549.110596,396.753845 547.995789,394.986755 
	C547.254700,393.812012 543.630554,393.442230 541.949341,394.186279 
	C540.534485,394.812439 539.288452,397.583557 539.329346,399.373993 
	C539.419006,403.291626 543.403381,404.613281 548.549011,402.048920 
M546.806946,290.691345 
	C547.756287,288.601318 549.529907,286.447327 549.374329,284.443054 
	C549.264832,283.031464 546.670959,281.071259 544.931396,280.754120 
	C543.449280,280.483917 541.071472,281.818359 540.079895,283.169464 
	C539.223450,284.336456 539.015442,287.317322 539.840576,288.093842 
	C541.418579,289.578857 543.935059,290.066681 546.806946,290.691345 
M548.587952,316.144409 
	C548.481201,313.735199 549.028625,310.982208 548.013489,309.050323 
	C547.437500,307.954193 543.929565,307.387390 542.421631,308.074219 
	C540.885315,308.774048 539.392944,311.250122 539.272522,313.041992 
	C538.988892,317.261383 543.195557,318.874542 548.587952,316.144409 
z"/>
<path fill="#151515" opacity="1.000000" stroke="none" 
	d="
M498.988190,291.077271 
	C503.462402,291.077271 507.438629,291.077271 511.797943,291.077271 
	C511.797943,316.115234 511.797943,340.828918 511.797943,365.916351 
	C456.819824,365.916351 401.757111,365.916351 346.310303,365.916351 
	C346.310303,341.279541 346.310303,316.553040 346.310303,291.077271 
	C396.995483,291.077271 447.742859,291.077271 498.988190,291.077271 
M403.550293,307.270721 
	C401.385956,307.273743 399.221527,307.267181 397.057251,307.281555 
	C390.278107,307.326477 388.938904,308.665863 388.929413,315.477478 
	C388.916870,324.467896 388.910278,333.458344 388.936035,342.448669 
	C388.954315,348.832031 390.172943,350.244507 396.426788,350.263733 
	C418.236511,350.330811 440.046753,350.312500 461.856506,350.239899 
	C467.831055,350.220001 469.357300,348.528656 469.392853,342.311951 
	C469.443298,333.488312 469.428619,324.664124 469.399414,315.840302 
	C469.376190,308.825073 467.845947,307.278839 460.975189,307.274750 
	C442.161957,307.263550 423.348694,307.270508 403.550293,307.270721 
M487.832764,308.214203 
	C485.093719,310.431610 484.117432,313.428619 486.761993,315.799133 
	C488.260345,317.142181 491.772125,317.718140 493.503082,316.865387 
	C494.948334,316.153412 496.134491,312.580719 495.635437,310.771484 
	C494.756683,307.585815 491.889557,306.384033 487.832764,308.214203 
z"/>
<path fill="#141414" opacity="1.000000" stroke="none" 
	d="
M455.324646,451.730896 
	C425.714142,451.834686 396.571014,451.965302 367.427795,452.080627 
	C360.462830,452.108185 353.497650,452.084717 346.234711,452.084717 
	C346.234711,426.981689 346.234711,402.282990 346.234711,377.332092 
	C401.522980,377.332092 456.578491,377.332092 511.913757,377.332092 
	C511.913757,402.142151 511.913757,426.736084 511.913757,451.752167 
	C493.284668,451.752167 474.538330,451.752167 455.324646,451.730896 
M492.809570,424.840668 
	C490.647583,420.125580 488.606415,419.020111 486.298126,421.314148 
	C483.275421,424.318298 482.458588,433.858307 485.111633,437.476654 
	C485.882202,438.527588 487.674744,439.949677 488.388733,439.666046 
	C489.537598,439.209656 490.179352,437.476807 491.733490,436.094482 
	C497.535278,433.125885 497.845398,429.743713 492.809570,424.840668 
M443.102203,436.860565 
	C444.078400,436.661133 445.054565,436.461700 446.953430,436.114227 
	C452.078003,436.107391 457.216431,436.317261 462.320465,435.990112 
	C464.447601,435.853760 466.501465,434.573700 469.272278,433.880768 
	C470.042542,433.378174 470.812805,432.875610 471.583069,432.373047 
	C470.951477,431.559784 470.319916,430.746521 469.452332,429.145569 
	C469.532745,427.787231 469.613159,426.428864 470.370026,425.093872 
	C471.241699,426.341034 472.335724,427.490265 472.937378,428.856354 
	C474.085480,431.463043 474.952850,434.193298 475.942657,436.888367 
	C478.278870,436.323944 479.854584,435.943268 482.084290,435.404572 
	C480.590912,430.754700 479.321167,426.249664 477.609253,421.919434 
	C477.251465,421.014404 475.297272,420.422668 474.015015,420.286407 
	C472.610931,420.137207 471.132965,420.683197 469.452637,420.175629 
	C469.541504,419.141296 469.630371,418.106964 470.392303,417.028229 
	C471.803040,415.975739 474.289337,415.033081 474.410309,413.848877 
	C474.700745,411.005890 472.801880,409.122986 469.459167,408.038055 
	C469.445160,405.873932 469.444946,403.709625 469.414612,401.545715 
	C469.317261,394.605225 467.800415,393.080200 460.817993,393.074921 
	C439.341034,393.058716 417.863983,393.045868 396.387115,393.088684 
	C390.557526,393.100311 388.928802,394.752960 388.905457,400.484344 
	C388.868134,409.640900 388.900299,418.797760 388.915924,427.954498 
	C388.927765,434.892120 390.109924,436.073608 397.030670,436.099396 
	C412.343597,436.156403 427.656555,436.208984 443.102203,436.860565 
M371.820099,395.701569 
	C369.688202,394.985046 366.920319,393.107635 365.582489,393.840546 
	C363.837738,394.796448 362.203796,397.902557 362.365845,399.936615 
	C362.611725,403.022980 365.434875,404.639618 368.634827,403.690613 
	C372.243103,402.620483 373.474548,399.998047 371.820099,395.701569 
M491.445435,440.484009 
	C491.445435,440.484009 491.519897,440.444885 491.445435,440.484009 
z"/>
<path fill="#191919" opacity="1.000000" stroke="none" 
	d="
M582.969971,589.950073 
	C583.381165,594.885925 583.959045,599.326355 584.078552,603.779053 
	C584.106201,604.809143 582.640686,606.709778 581.736511,606.789978 
	C577.936218,607.126831 574.022278,607.334534 570.287903,606.733093 
	C568.637939,606.467285 566.746277,604.434570 565.933960,602.739380 
	C557.661072,585.476013 549.592834,568.114563 541.451172,550.788147 
	C540.777832,549.355225 539.986389,547.977783 538.222412,546.780273 
	C538.222412,548.338684 538.223267,549.897095 538.222229,551.455505 
	C538.213196,565.445251 538.130981,579.435608 538.248535,593.424316 
	C538.276123,596.714294 538.666260,600.076355 539.461670,603.262451 
	C540.179016,606.136047 539.193298,606.940796 536.635986,606.934692 
	C532.638916,606.925171 528.641846,606.934509 524.644775,606.928040 
	C522.062317,606.923889 521.166382,606.089294 521.923035,603.219910 
	C522.759094,600.049377 523.091003,596.665466 523.106079,593.372009 
	C523.203674,572.054443 523.220886,550.735840 523.112061,529.418396 
	C523.080933,523.323730 522.545227,517.231689 522.195679,510.233978 
	C526.832520,510.233978 532.037048,510.021881 537.196594,510.409332 
	C538.254150,510.488708 539.391479,512.694580 540.072021,514.120667 
	C548.174011,531.098572 556.193970,548.115723 564.243469,565.118652 
	C565.015869,566.750183 565.842163,568.356140 567.079224,570.854004 
	C567.079224,550.099854 567.079224,530.397888 567.079224,510.414246 
	C572.406372,510.414246 578.276306,510.414246 582.969971,510.414246 
	C582.969971,536.987732 582.969971,563.223389 582.969971,589.950073 
z"/>
<path fill="#191919" opacity="1.000000" stroke="none" 
	d="
M266.961090,545.000000 
	C266.965332,561.495361 266.911652,577.491150 267.023712,593.485718 
	C267.045593,596.612061 267.328796,599.842590 268.179291,602.829163 
	C269.146637,606.226257 267.922882,607.041138 264.904846,606.963257 
	C260.579803,606.851685 255.447586,608.282227 252.128326,606.427124 
	C247.939133,604.085815 252.377075,599.163025 252.120865,595.239319 
	C251.504868,585.805847 251.921448,576.304932 251.921448,566.463867 
	C242.680847,566.463867 233.788834,566.463867 225.098221,566.463867 
	C225.098221,578.508118 224.753143,590.588745 225.312439,602.627319 
	C225.476227,606.152954 225.141663,607.071106 221.808884,606.976746 
	C217.097900,606.843201 212.380295,606.942871 208.362732,606.942871 
	C209.619156,574.112366 209.559906,542.460754 208.443710,510.438049 
	C213.727768,510.438049 219.580139,510.438049 224.996490,510.438049 
	C224.996490,523.979736 224.996490,537.161682 224.996490,550.631042 
	C233.527298,550.631042 242.288666,550.631042 251.133881,550.631042 
	C251.133881,537.450684 251.133881,524.289185 251.133881,510.593231 
	C256.441040,510.593231 262.386444,510.593231 267.510345,510.593231 
	C267.325226,522.021240 267.143158,533.260620 266.961090,545.000000 
z"/>
<path fill="#1A1A1A" opacity="1.000000" stroke="none" 
	d="
M632.972656,602.445374 
	C633.227600,600.240967 633.796936,598.306824 633.319397,596.680115 
	C629.665283,584.233215 625.807312,571.846252 621.917175,559.128052 
	C609.285950,572.690002 604.518005,587.892883 610.236206,606.319214 
	C603.716492,606.319214 597.814209,606.319214 592.457520,606.319214 
	C593.686218,574.384216 593.215759,542.745911 592.830017,510.590607 
	C597.632996,510.590607 603.557434,510.590607 608.997070,510.590607 
	C608.997070,524.061218 608.997070,537.219177 608.997070,550.377136 
	C616.674622,537.608215 627.285278,526.318298 631.624023,510.454956 
	C636.653381,510.454956 643.176270,510.454956 650.231201,510.454956 
	C649.602966,511.869446 649.207947,513.075867 648.571472,514.137573 
	C645.661377,518.991699 643.249573,524.290161 639.613586,528.533386 
	C631.775452,537.680420 631.721069,546.828003 635.884033,557.800659 
	C641.422485,572.398499 645.246399,587.646973 649.796692,602.619141 
	C650.124451,603.697571 650.367981,604.801575 650.913147,606.907471 
	C644.970398,606.907471 639.580933,607.022339 634.213562,606.730530 
	C633.674438,606.701172 633.269409,604.207825 632.972656,602.445374 
z"/>
<path fill="#181818" opacity="1.000000" stroke="none" 
	d="
M387.401855,539.991211 
	C387.401855,543.787415 387.401855,547.084839 387.401855,550.908813 
	C393.664673,550.908813 399.454132,550.908508 405.243561,550.908936 
	C412.349487,550.909424 412.364349,550.911987 411.298676,557.727112 
	C410.785248,561.010681 410.215729,564.285706 409.631104,567.557373 
	C409.581421,567.835449 409.224335,568.058655 409.589630,567.634583 
	C402.041046,566.913513 395.070679,566.247681 387.702209,565.543762 
	C387.702209,574.698669 387.702209,582.936462 387.702209,590.961426 
	C399.932739,590.961426 412.065582,590.961426 424.957153,590.961426 
	C424.290833,595.296448 423.677704,600.169128 422.676117,604.960632 
	C422.502502,605.791321 420.689209,606.834045 419.627167,606.840942 
	C403.973938,606.942932 388.319641,606.894714 372.665771,606.833252 
	C372.088379,606.830994 371.512939,606.330261 371.463013,606.307007 
	C371.463013,574.230652 371.463013,542.573547 371.463013,510.489075 
	C387.909149,510.489075 404.780365,510.489075 422.221252,510.489075 
	C423.154877,515.633240 424.113983,520.917725 425.029999,525.964722 
	C412.127716,525.964722 399.988647,525.964722 387.401886,525.964722 
	C387.401886,530.224243 387.401886,534.858398 387.401855,539.991211 
z"/>
<path fill="#191919" opacity="1.000000" stroke="none" 
	d="
M347.871063,520.468079 
	C347.968079,516.969727 347.968079,513.890625 347.968079,510.434143 
	C353.386108,510.434143 359.103668,510.434143 365.496338,510.434143 
	C365.247009,512.330566 365.189056,514.083313 364.772247,515.746094 
	C357.562469,544.506042 350.244019,573.239014 343.142365,602.025513 
	C342.211975,605.796753 340.606140,607.099670 336.703400,607.036316 
	C325.702637,606.857483 325.667236,607.036987 322.919403,596.192810 
	C316.127533,569.388977 309.364166,542.577820 302.607330,515.765076 
	C302.212769,514.199463 301.977356,512.593689 301.567383,510.491119 
	C307.997009,510.491119 313.865082,510.491119 320.160797,510.491119 
	C317.401276,521.676392 322.839081,531.556824 325.007874,541.939575 
	C327.216919,552.515015 330.212128,562.926331 332.863129,573.409485 
	C333.387268,573.522217 333.911407,573.634888 334.435547,573.747620 
	C338.881714,556.127502 343.327881,538.507385 347.871063,520.468079 
z"/>
<path fill="#191919" opacity="1.000000" stroke="none" 
	d="
M389.000305,264.267456 
	C421.819672,264.265839 454.139221,264.309875 486.458221,264.193268 
	C489.754700,264.181396 492.078278,265.050171 494.164124,267.634583 
	C497.470917,271.731842 501.118896,275.553680 505.124115,280.055908 
	C454.184692,280.055908 404.110931,280.055908 352.967194,280.055908 
	C357.756897,274.708801 361.912506,269.874420 366.337494,265.300659 
	C367.182892,264.426788 369.086273,264.328339 370.508850,264.304321 
	C376.504517,264.202911 382.502960,264.265106 389.000305,264.267456 
z"/>
<path fill="#1A1A1A" opacity="1.000000" stroke="none" 
	d="
M449.428223,521.133240 
	C449.422089,544.897827 449.422089,568.180176 449.422089,591.002441 
	C462.170319,591.002441 474.350830,591.002441 487.380035,591.002441 
	C486.362152,595.431091 485.432404,600.245361 484.033417,604.919128 
	C483.751282,605.861572 481.695282,606.832092 480.449585,606.842102 
	C465.284790,606.963074 450.118561,606.913757 434.952850,606.871338 
	C434.344147,606.869629 433.736481,606.498169 434.097504,606.616394 
	C434.497437,574.452454 434.694275,542.789673 433.935699,510.595520 
	C438.820221,510.595520 444.648193,510.595520 450.940826,510.595520 
	C450.439423,513.942322 449.936920,517.296631 449.428223,521.133240 
z"/>
<path fill="#1F1F1F" opacity="1.000000" stroke="none" 
	d="
M511.713593,581.999329 
	C511.713562,590.237610 511.713562,597.976074 511.713562,606.866455 
	C507.555817,606.866455 502.035187,606.950745 496.528534,606.711975 
	C496.070862,606.692200 495.327667,604.474670 495.375275,603.305054 
	C495.495728,600.347351 496.276550,597.406250 496.290497,594.456116 
	C496.383392,574.831787 496.402222,555.206665 496.320801,535.582275 
	C496.286652,527.351318 495.949402,519.121643 495.739838,510.473511 
	C500.920929,510.473511 506.776245,510.473511 511.713623,510.473511 
	C511.713623,534.162720 511.713623,557.831116 511.713593,581.999329 
z"/>
<path fill="#1B1B1B" opacity="1.000000" stroke="none" 
	d="
M278.907593,539.000183 
	C278.907593,533.837891 279.070068,529.168274 278.861603,524.515259 
	C278.656311,519.932373 278.075073,515.366333 277.625580,510.428131 
	C283.396240,510.428131 289.249603,510.428131 294.723572,510.428131 
	C294.723572,542.493591 294.723572,574.286377 294.723572,606.895081 
	C289.945129,606.895081 284.694061,607.009155 279.460663,606.756836 
	C278.774017,606.723694 277.590942,604.785461 277.639221,603.777649 
	C277.876312,598.827637 278.795135,593.897278 278.844879,588.953674 
	C279.010620,572.470581 278.907593,555.984863 278.907593,539.000183 
z"/>
<path fill="#1B1B1B" opacity="1.000000" stroke="none" 
	d="
M496.154968,476.716888 
	C496.146759,471.975525 496.146759,467.706970 496.146759,463.196838 
	C501.722076,463.196838 506.756042,463.196838 511.999695,463.196838 
	C511.999695,468.570984 511.999695,473.645111 511.999695,479.092743 
	C507.341736,479.092743 502.880035,479.183289 498.428864,479.007172 
	C497.650879,478.976410 496.917297,477.824036 496.154968,476.716888 
z"/>
<path fill="#1B1B1B" opacity="1.000000" stroke="none" 
	d="
M354.949341,462.898895 
	C357.385925,462.898834 359.338806,462.898834 361.628845,462.898834 
	C361.628845,468.346466 361.628845,473.379761 361.628845,478.762543 
	C356.624207,478.762543 351.596588,478.762543 346.231384,478.762543 
	C346.231384,473.690521 346.231384,468.663818 346.231384,462.898956 
	C348.983948,462.898956 351.724792,462.898956 354.949341,462.898895 
z"/>
<path fill="#292929" opacity="1.000000" stroke="none" 
	d="
M308.654022,361.744629 
	C310.985870,360.472900 313.299225,358.649750 315.325470,358.926758 
	C316.761017,359.123016 318.676331,362.116821 318.763397,363.939026 
	C318.837402,365.486847 316.935913,367.818085 315.321411,368.618561 
	C311.610596,370.458374 308.436707,367.230499 308.654022,361.744629 
z"/>
<path fill="#262626" opacity="1.000000" stroke="none" 
	d="
M548.292358,402.336365 
	C543.403381,404.613281 539.419006,403.291626 539.329346,399.373993 
	C539.288452,397.583557 540.534485,394.812439 541.949341,394.186279 
	C543.630554,393.442230 547.254700,393.812012 547.995789,394.986755 
	C549.110596,396.753845 548.453064,399.639069 548.292358,402.336365 
z"/>
<path fill="#262626" opacity="1.000000" stroke="none" 
	d="
M546.434448,290.829834 
	C543.935059,290.066681 541.418579,289.578857 539.840576,288.093842 
	C539.015442,287.317322 539.223450,284.336456 540.079895,283.169464 
	C541.071472,281.818359 543.449280,280.483917 544.931396,280.754120 
	C546.670959,281.071259 549.264832,283.031464 549.374329,284.443054 
	C549.529907,286.447327 547.756287,288.601318 546.434448,290.829834 
z"/>
<path fill="#282828" opacity="1.000000" stroke="none" 
	d="
M548.317749,316.422974 
	C543.195557,318.874542 538.988892,317.261383 539.272522,313.041992 
	C539.392944,311.250122 540.885315,308.774048 542.421631,308.074219 
	C543.929565,307.387390 547.437500,307.954193 548.013489,309.050323 
	C549.028625,310.982208 548.481201,313.735199 548.317749,316.422974 
z"/>
<path fill="#F9F9F9" opacity="1.000000" stroke="none" 
	d="
M404.042877,307.270508 
	C423.348694,307.270508 442.161957,307.263550 460.975189,307.274750 
	C467.845947,307.278839 469.376190,308.825073 469.399414,315.840302 
	C469.428619,324.664124 469.443298,333.488312 469.392853,342.311951 
	C469.357300,348.528656 467.831055,350.220001 461.856506,350.239899 
	C440.046753,350.312500 418.236511,350.330811 396.426788,350.263733 
	C390.172943,350.244507 388.954315,348.832031 388.936035,342.448669 
	C388.910278,333.458344 388.916870,324.467896 388.929413,315.477478 
	C388.938904,308.665863 390.278107,307.326477 397.057251,307.281555 
	C399.221527,307.267181 401.385956,307.273743 404.042877,307.270508 
M412.513855,318.069397 
	C408.256592,318.069397 403.999298,318.069397 399.764282,318.069397 
	C399.764282,325.586060 399.764282,332.463806 399.764282,339.296783 
	C419.533478,339.296783 438.904602,339.296783 458.295715,339.296783 
	C458.295715,332.038025 458.295715,325.157837 458.295715,318.069336 
	C443.111298,318.069336 428.309998,318.069336 412.513855,318.069397 
z"/>
<path fill="#E8E8E8" opacity="1.000000" stroke="none" 
	d="
M488.166016,308.052246 
	C491.889557,306.384033 494.756683,307.585815 495.635437,310.771484 
	C496.134491,312.580719 494.948334,316.153412 493.503082,316.865387 
	C491.772125,317.718140 488.260345,317.142181 486.761993,315.799133 
	C484.117432,313.428619 485.093719,310.431610 488.166016,308.052246 
z"/>
<path fill="#F7F7F7" opacity="1.000000" stroke="none" 
	d="
M469.693573,425.070526 
	C469.613159,426.428864 469.532745,427.787231 469.376099,429.896240 
	C469.062805,431.702515 468.825714,432.758087 468.588623,433.813690 
	C466.501465,434.573700 464.447601,435.853760 462.320465,435.990112 
	C457.216431,436.317261 452.078003,436.107391 446.116089,436.086700 
	C444.508972,436.127228 443.739227,436.195312 442.969482,436.263367 
	C427.656555,436.208984 412.343597,436.156403 397.030670,436.099396 
	C390.109924,436.073608 388.927765,434.892120 388.915924,427.954498 
	C388.900299,418.797760 388.868134,409.640900 388.905457,400.484344 
	C388.928802,394.752960 390.557526,393.100311 396.387115,393.088684 
	C417.863983,393.045868 439.341034,393.058716 460.817993,393.074921 
	C467.800415,393.080200 469.317261,394.605225 469.414612,401.545715 
	C469.444946,403.709625 469.445160,405.873932 469.428101,408.913635 
	C469.504425,412.217041 469.611816,414.644836 469.719238,417.072632 
	C469.630371,418.106964 469.541504,419.141296 469.418060,420.949036 
	C469.486847,422.838440 469.590210,423.954498 469.693573,425.070526 
M439.499329,425.267883 
	C445.754730,425.267883 452.010132,425.267883 458.375977,425.267883 
	C458.375977,417.869263 458.375977,411.127136 458.375977,404.163086 
	C438.698914,404.163086 419.315491,404.163086 399.756378,404.163086 
	C399.756378,411.243225 399.756378,418.100861 399.756378,425.267365 
	C412.916382,425.267365 425.707977,425.267365 439.499329,425.267883 
z"/>
<path fill="#2A2A2A" opacity="1.000000" stroke="none" 
	d="
M470.031799,425.082214 
	C469.590210,423.954498 469.486847,422.838440 469.535339,421.324341 
	C471.132965,420.683197 472.610931,420.137207 474.015015,420.286407 
	C475.297272,420.422668 477.251465,421.014404 477.609253,421.919434 
	C479.321167,426.249664 480.590912,430.754700 482.084290,435.404572 
	C479.854584,435.943268 478.278870,436.323944 475.942657,436.888367 
	C474.952850,434.193298 474.085480,431.463043 472.937378,428.856354 
	C472.335724,427.490265 471.241699,426.341034 470.031799,425.082214 
z"/>
<path fill="#E9E9E9" opacity="1.000000" stroke="none" 
	d="
M372.004761,396.027893 
	C373.474548,399.998047 372.243103,402.620483 368.634827,403.690613 
	C365.434875,404.639618 362.611725,403.022980 362.365845,399.936615 
	C362.203796,397.902557 363.837738,394.796448 365.582489,393.840546 
	C366.920319,393.107635 369.688202,394.985046 372.004761,396.027893 
z"/>
<path fill="#E9E9E9" opacity="1.000000" stroke="none" 
	d="
M492.695160,425.606537 
	C497.845398,429.743713 497.535278,433.125885 491.030121,436.085388 
	C487.050171,435.286346 484.934937,433.379181 485.644623,429.851746 
	C486.390350,426.145203 489.170807,425.079712 492.695160,425.606537 
z"/>
<path fill="#2A2A2A" opacity="1.000000" stroke="none" 
	d="
M492.752380,425.223602 
	C489.170807,425.079712 486.390350,426.145203 485.644623,429.851746 
	C484.934937,433.379181 487.050171,435.286346 490.681030,436.179779 
	C490.179352,437.476807 489.537598,439.209656 488.388733,439.666046 
	C487.674744,439.949677 485.882202,438.527588 485.111633,437.476654 
	C482.458588,433.858307 483.275421,424.318298 486.298126,421.314148 
	C488.606415,419.020111 490.647583,420.125580 492.752380,425.223602 
z"/>
<path fill="#2A2A2A" opacity="1.000000" stroke="none" 
	d="
M470.055756,417.050415 
	C469.611816,414.644836 469.504425,412.217041 469.550415,409.356934 
	C472.801880,409.122986 474.700745,411.005890 474.410309,413.848877 
	C474.289337,415.033081 471.803040,415.975739 470.055756,417.050415 
z"/>
<path fill="#2A2A2A" opacity="1.000000" stroke="none" 
	d="
M468.930450,433.847229 
	C468.825714,432.758087 469.062805,431.702515 469.494110,430.290100 
	C470.319916,430.746521 470.951477,431.559784 471.583069,432.373047 
	C470.812805,432.875610 470.042542,433.378174 468.930450,433.847229 
z"/>
<path fill="#2A2A2A" opacity="1.000000" stroke="none" 
	d="
M443.035828,436.561981 
	C443.739227,436.195312 444.508972,436.127228 445.654724,436.160706 
	C445.054565,436.461700 444.078400,436.661133 443.035828,436.561981 
z"/>
<path fill="#2A2A2A" opacity="1.000000" stroke="none" 
	d="
M491.482666,440.464447 
	C491.519897,440.444885 491.445435,440.484009 491.482666,440.464447 
z"/>
<path fill="#1B1B1B" opacity="1.000000" stroke="none" 
	d="
M413.011261,318.069366 
	C428.309998,318.069336 443.111298,318.069336 458.295715,318.069336 
	C458.295715,325.157837 458.295715,332.038025 458.295715,339.296783 
	C438.904602,339.296783 419.533478,339.296783 399.764282,339.296783 
	C399.764282,332.463806 399.764282,325.586060 399.764282,318.069397 
	C403.999298,318.069397 408.256592,318.069397 413.011261,318.069366 
z"/>
<path fill="#171717" opacity="1.000000" stroke="none" 
	d="
M438.999451,425.267639 
	C425.707977,425.267365 412.916382,425.267365 399.756378,425.267365 
	C399.756378,418.100861 399.756378,411.243225 399.756378,404.163086 
	C419.315491,404.163086 438.698914,404.163086 458.375977,404.163086 
	C458.375977,411.127136 458.375977,417.869263 458.375977,425.267883 
	C452.010132,425.267883 445.754730,425.267883 438.999451,425.267639 
z"/>
</svg>